<svg xmlns="http://www.w3.org/2000/svg" width="514" height="481" viewBox="0 0 514 481" version="1.1">
	<path d="M 362 147.553 C 332.958 153.780, 308.132 173.314, 295.366 199.981 C 292.047 206.913, 291.201 207.984, 289.392 207.545 C 282.629 205.904, 263.025 205.077, 252.579 205.993 C 242.139 206.908, 229.820 208.977, 225.947 210.466 C 224.794 210.909, 223.829 209.702, 222.201 205.781 C 218.853 197.717, 211.020 186.119, 203.635 178.290 C 178.845 152.012, 139.929 141.858, 105.546 152.698 C 74.948 162.345, 50.195 187.331, 41.597 217.250 L 39.944 223 20.453 223 L 0.962 223 1.231 245.750 L 1.500 268.500 20.845 268.500 L 40.190 268.500 43.065 276.363 C 55.976 311.665, 86.737 336.123, 123.376 340.218 C 163.764 344.731, 202.656 323.235, 220.566 286.500 C 224.746 277.927, 229 264.269, 229 259.422 C 229 257.536, 230.031 256.826, 235.250 255.120 C 245.624 251.729, 254.318 250.712, 268.384 251.245 C 283.334 251.811, 287 252.809, 287 256.315 C 287 261.080, 291.126 274.721, 295.050 282.928 C 307.459 308.886, 329.976 327.556, 358.001 335.126 C 365.146 337.056, 368.969 337.421, 382 337.421 C 400.691 337.421, 409.167 335.541, 424.500 327.993 C 448.087 316.381, 466.578 294.813, 474.003 270.250 L 476.195 263 494.597 263 L 513 263 513 240.500 L 513 218 494.206 218 L 475.412 218 473.648 212.250 C 463.855 180.325, 435.103 154.452, 401.792 147.588 C 392.250 145.622, 371.092 145.603, 362 147.553 M 369.112 192.581 C 342.565 199.720, 325.859 227.559, 332.530 253.540 C 335.098 263.539, 338.838 269.995, 346.423 277.522 C 367.074 298.012, 397.098 298.037, 417.592 277.580 C 445.689 249.533, 433.635 204.061, 395.068 192.612 C 388.415 190.637, 376.393 190.623, 369.112 192.581 M 117.545 196.496 C 100.956 202.349, 88.978 215.469, 84.489 232.703 C 77.164 260.827, 97.315 290.555, 126.750 295.047 C 161.568 300.362, 192.332 266.571, 183.511 232.703 C 179.022 215.469, 167.044 202.349, 150.455 196.496 C 144.943 194.551, 141.530 194.042, 134 194.042 C 126.470 194.042, 123.057 194.551, 117.545 196.496" stroke="none" fill="black" fill-rule="evenodd"/>
</svg>